<svg width="1024" height="1024" viewBox="0 0 1024 1024" fill="none" xmlns="http://www.w3.org/2000/svg">
<path d="M342.949 431.232C340.375 429.945 337.566 429.192 334.693 429.018C331.819 428.845 328.941 429.255 326.23 430.224C323.519 431.193 321.033 432.7 318.92 434.655C316.807 436.61 315.112 438.972 313.936 441.6L135.035 842.752C106.576 906.581 169.808 972.757 228.987 941.141L480.891 806.656C500.517 796.203 523.557 796.203 543.141 806.656L795.045 941.141C854.224 972.757 917.456 906.581 888.997 842.752L821.925 692.395C813.887 674.342 799.832 659.639 782.16 650.795L342.949 431.232Z" fill="#572ADB"/>
<path opacity="0.5" d="M367.397 371.883C362.484 369.433 358.705 365.183 356.846 360.017C354.986 354.852 355.189 349.169 357.413 344.149L449.189 138.368C474.363 81.8773 549.669 81.8773 574.843 138.368L744.144 518.016C745.921 522.029 746.416 526.492 745.563 530.797C744.71 535.102 742.55 539.04 739.377 542.072C736.205 545.105 732.174 547.085 727.835 547.743C723.496 548.401 719.06 547.705 715.131 545.749L367.397 371.883Z" fill="#B188FF"/>
</svg>
